<svg width="24" height="24" viewBox="0 0 24 24" fill="none" xmlns="http://www.w3.org/2000/svg">
<g clip-path="url(#clip0_501_6887)">
<path d="M0.0679321 24L1.74847 17.8344C0.712211 16.026 0.167163 13.9777 0.167545 11.8932C0.167545 5.33905 5.47073 0 11.9808 0C15.1427 0 18.1053 1.24085 20.3456 3.48388C21.4465 4.58914 22.3188 5.90078 22.9127 7.34375C23.5065 8.78671 23.8101 10.3327 23.8062 11.8932C23.8062 18.448 18.5037 23.7871 11.993 23.7871C10.0143 23.7871 8.07218 23.2853 6.3415 22.3333L0.0679321 24Z" fill="url(#paint0_linear_501_6887)"/>
<path fill-rule="evenodd" clip-rule="evenodd" d="M8.92735 6.72976C8.70373 6.21579 8.45436 6.20359 8.24294 6.20359C8.05591 6.1907 7.85668 6.1907 7.64526 6.1907C7.44603 6.1907 7.10993 6.26597 6.82396 6.57923C6.53732 6.8925 5.7533 7.63226 5.7533 9.14908C5.7533 10.6652 6.84904 12.1319 6.99812 12.3319C7.1472 12.5326 9.11438 15.7412 12.2261 16.982C14.8153 18.0093 15.3385 17.8093 15.8989 17.7462C16.4586 17.6838 17.7034 17.0071 17.965 16.2796C18.2137 15.5656 18.2137 14.939 18.1392 14.8136C18.0646 14.6882 17.8525 14.6129 17.5537 14.4502C17.2426 14.2996 15.7491 13.5483 15.4625 13.4473C15.1765 13.347 14.9773 13.2968 14.7781 13.5978C14.5788 13.9111 13.994 14.6007 13.807 14.8007C13.6329 15.0014 13.4465 15.0265 13.1477 14.876C12.836 14.7261 11.8534 14.4 10.6824 13.347C9.7744 12.5326 9.16452 11.5176 8.9775 11.2165C8.80334 10.9032 8.95242 10.7405 9.11438 10.59C9.25126 10.4523 9.42609 10.2265 9.57517 10.0509C9.72425 9.87529 9.77372 9.73764 9.88621 9.53694C9.98582 9.33691 9.93568 9.14841 9.86114 8.99856C9.7866 8.86023 9.20112 7.34409 8.92735 6.72976Z" fill="white"/>
</g>
<defs>
<linearGradient id="paint0_linear_501_6887" x1="11.9347" y1="23.9986" x2="11.9347" y2="-0.0047471" gradientUnits="userSpaceOnUse">
<stop stop-color="#20B038"/>
<stop offset="1" stop-color="#60D66A"/>
</linearGradient>
<clipPath id="clip0_501_6887">
<rect width="24" height="24" fill="white"/>
</clipPath>
</defs>
</svg>
